<svg xmlns="http://www.w3.org/2000/svg" fill="none" viewBox="0 0 74 70"><path fill="#53EAFF" stroke="#000" d="M13.398 13.615v.5H50.16c4.978 0 9.007 3.857 9.007 8.514v22.973h4.325c5.48 0 10.007-4.256 10.007-9.514v-25.54c0-5.26-4.528-9.515-10.007-9.515H23.405c-5.48 0-10.007 4.256-10.007 9.515v3.067Z"/><path fill="#00A6CE" d="M56.752 13.202H16.664c-.961 0-1.89.138-2.766.393v.019H50.16c5.229 0 9.507 4.056 9.507 9.014v22.473h3.825c.961 0 1.89-.138 2.766-.393V22.216c0-4.958-4.278-9.014-9.507-9.014Z"/><path fill="url(#a)" stroke="#000" d="M35.648 58.512a36.409 36.409 0 0 1-3.017 7.982c-.445.862-.149 1.739.444 2.251.59.51 1.503.69 2.332.204 3.648-2.14 8.85-5.73 13.238-10.814l-.379-.326.379.326c.47-.544 1.187-.865 1.95-.865 5.48 0 10.007-4.256 10.007-9.514v-25.54c0-5.259-4.527-9.514-10.007-9.514H10.507C5.027 12.702.5 16.957.5 22.216v25.54c0 5.259 4.528 9.514 10.007 9.514h24.06c.747 0 1.23.643 1.08 1.242Z"/><path fill="#fff" stroke="#000" d="M14.177 39.21c1.993 0 3.654-1.538 3.654-3.49 0-1.953-1.661-3.492-3.654-3.492-1.993 0-3.655 1.539-3.655 3.491 0 1.953 1.662 3.492 3.655 3.492ZM24.364 39.21c1.993 0 3.655-1.538 3.655-3.49 0-1.953-1.662-3.492-3.655-3.492-1.993 0-3.654 1.539-3.654 3.491 0 1.953 1.661 3.492 3.654 3.492ZM34.557 39.21c1.993 0 3.655-1.538 3.655-3.49 0-1.953-1.661-3.492-3.655-3.492-1.993 0-3.654 1.539-3.654 3.491 0 1.953 1.661 3.492 3.654 3.492ZM44.745 39.21c1.993 0 3.655-1.538 3.655-3.49 0-1.953-1.662-3.492-3.655-3.492-1.993 0-3.655 1.539-3.655 3.491 0 1.953 1.662 3.492 3.655 3.492Z"/><defs><linearGradient id="a" x1="-24.859" x2="55.845" y1="-22.557" y2="-26.177" gradientUnits="userSpaceOnUse"><stop stop-color="#53EAFF"/><stop offset="1" stop-color="#B9F348"/></linearGradient></defs></svg>