<svg xmlns="http://www.w3.org/2000/svg" fill="none" viewBox="0 0 20 20"><circle cx="10" cy="10" r="3.333" stroke="#262626" stroke-width="2"/><path stroke="#262626" stroke-width="2" d="M8.285 2.03c.776-1.296 2.654-1.296 3.43 0l.176.292a2 2 0 0 0 2.201.912l.33-.083c1.466-.367 2.794.96 2.427 2.426l-.083.33a2 2 0 0 0 .912 2.202l.293.175c1.296.777 1.296 2.655 0 3.431l-.293.176a2 2 0 0 0-.912 2.201l.083.33c.367 1.466-.96 2.794-2.426 2.427l-.33-.083a2 2 0 0 0-2.202.912l-.175.292c-.777 1.296-2.655 1.296-3.431 0l-.176-.292a2 2 0 0 0-2.201-.912l-.33.083c-1.466.367-2.794-.96-2.427-2.426l.083-.33a2 2 0 0 0-.912-2.202l-.292-.175c-1.296-.777-1.296-2.655 0-3.432l.292-.175a2 2 0 0 0 .912-2.201l-.083-.33c-.367-1.466.96-2.794 2.426-2.427l.33.083a2 2 0 0 0 2.202-.912l.176-.292Z"/></svg>